<svg width="192" height="192" viewBox="0 0 192 192" fill="none" xmlns="http://www.w3.org/2000/svg">
  <rect width="192" height="192" rx="40" fill="#8B9D83"/>
  <path d="M96 40C71.2 40 51 60.2 51 85C51 109.8 71.2 130 96 130C120.8 130 141 109.8 141 85C141 60.2 120.8 40 96 40ZM96 120C76.7 120 61 104.3 61 85C61 65.7 76.7 50 96 50C115.3 50 131 65.7 131 85C131 104.3 115.3 120 96 120Z" fill="#FFFCF7"/>
  <path d="M96 60C82.2 60 71 71.2 71 85C71 98.8 82.2 110 96 110C109.8 110 121 98.8 121 85C121 71.2 109.8 60 96 60ZM96 100C87.7 100 81 93.3 81 85C81 76.7 87.7 70 96 70C104.3 70 111 76.7 111 85C111 93.3 104.3 100 96 100Z" fill="#FFFCF7"/>
  <path d="M96 140L76 160H116L96 140Z" fill="#FFFCF7"/>
  <circle cx="96" cy="85" r="10" fill="#FFFCF7"/>
</svg>
